<svg width="364" height="364" viewBox="0 0 364 364" fill="none" xmlns="http://www.w3.org/2000/svg">
<path opacity="0.71" d="M182.022 0C81.5052 0 0 81.4952 0 182C0 282.505 81.5052 364 182.022 364C282.539 364 364 282.505 364 182C364 81.4952 282.539 0 182.022 0ZM182.112 349.195C89.781 349.195 14.9859 274.364 14.9859 182.089C14.9859 89.8147 89.781 14.984 182.112 14.984C274.443 14.984 349.238 89.8147 349.238 182.089C349.238 274.364 274.443 349.195 182.112 349.195Z" fill="#737373" fill-opacity="0.7"/>
<path opacity="0.71" d="M209.251 229.845C209.251 229.845 209.385 226.58 213.607 224.969C218.586 223.091 226.187 220.809 235.521 216.604C246.189 211.773 257.346 205.6 265.303 196.25C272.859 187.437 277.082 172.63 268.503 156.66C261.658 143.956 243.967 127.404 236.944 120.649C227.298 111.345 225.209 102.04 228.232 89.0671C229.032 85.5779 230.498 82.4465 232.276 80.344C234.277 77.9731 230.41 88.3067 233.388 97.5666C235.921 105.529 240.5 110.45 251.879 118.815C262.547 126.644 280.905 142.703 287.528 160.865C293.84 178.133 290.773 194.863 284.505 205.689C275.526 221.167 258.858 232.261 242.633 238.792C227.876 244.742 214.674 249.171 211.429 243.087C208.096 236.824 209.162 229.801 209.162 229.801" fill="#737373" fill-opacity="0.7"/>
<path opacity="0.71" d="M160.842 226.803C160.842 226.803 159.672 236.881 154.68 240.939C153.645 241.786 149.417 244.551 143.885 241.831C140.106 239.958 111.77 223.37 98.5459 210.661C87.9759 200.494 73.1328 183.058 71.3786 164.999C70.0293 151.175 72.0983 141.142 80.6443 130.484C88.3807 120.763 95.7572 114.208 102.954 108.813C109.701 103.774 122.115 94.2757 127.287 86.6504C132.235 79.3373 134.034 70.1514 134.034 70.1514C134.619 65.1125 140.646 77.4199 133.27 91.3772C129.536 98.4228 121.89 107.564 112.849 115.858C105.023 123.038 92.2489 134.498 89.5501 148.5C86.8064 162.858 95.9371 177.574 108.756 189.346C121.26 200.851 134.439 208.208 143.93 212.801C150.227 215.878 157.243 218.063 158.953 220.427C160.662 222.79 161.336 224.172 160.842 226.759" fill="#737373" fill-opacity="0.7"/>
<path opacity="0.71" d="M177.999 227.731C180.625 228.486 184.956 229.419 192.097 229.152C196.842 228.975 199.791 228.264 201.91 230.884C203.891 233.371 202.002 242.564 206.103 248.604C208.176 251.668 206.241 254.954 204.49 260.372C202.739 265.79 202.371 268.765 202.233 270.098C201.864 273.473 198.962 274.405 197.027 278.047C194.907 281.999 193.018 289.238 192.097 294.656C191.406 298.653 194.124 303.626 189.24 305.98C184.311 308.334 182.238 309 180.118 309C177.999 309 175.419 307.224 173.346 306.513C171.227 305.847 168.601 305.536 169.292 301.45C169.983 297.409 169.384 288.883 168.186 284.442C167.08 280.401 162.749 275.649 162.058 270.586C161.69 267.922 161.367 263.747 159.617 261.704C157.866 259.661 157.636 254.466 157.221 253.133C156.346 250.424 158.234 247.36 160.031 244.829C163.855 239.367 164.915 233.149 165.606 230.84C166.527 227.687 167.403 224.712 170.582 225.022C172.056 225.156 175.373 227.021 178.045 227.731" fill="#737373" fill-opacity="0.7"/>
</svg>
